<svg xmlns="http://www.w3.org/2000/svg" version="1.1" viewBox="-110 -110 220 220">
<!--
	scalable vector graphics format for favicon of "dh" insribed into regular heptagon
	by and for Daryl Hepting, copyright 2020.
	
	* reference circle into which hexagon is inscribed
	<circle style="fill:none;stroke:#777777;stroke-width:1px" cx="0" cy="0" r="100"/>

	* regular heptagon into which "dh" is inscribed
	<polygon style="fill:none;stroke:#777777;stroke-width:1px" points="
		0 , -100.0
		78.18314824680299 , -62.34898018587335
		97.49279121818236 , 22.25209339563144
		43.38837391175582 , 90.09688679024191
		-43.38837391175581 , 90.09688679024191
		-97.49279121818236 , 22.25209339563145
		-78.18314824680299 , -62.34898018587334
	" />
-->
<!--
	outer "d"
-->
<path fill-rule="nonzero" fill="#0024FF" stroke="#777777" d="
	M0,-100 
	L0,90.09688679024191 L-43.38837391175581,90.09688679024191
	L-97.49279121818236,22.25209339563145 L-18.0,4.108382539022701 
	L-18.0 -91.33165686146448 z
	M-18.0,22.1083825390227 
	L-65.87112211448499,33.03465377338791
	L-34.720030773220294,72.09688679024191 L-18.0, 72.09688679024191 z
" />
<!--
	inner "d"
-->
<path fill-rule="nonzero" fill="#FFDB00" stroke="#777777" d="
	M-6,-91.11055228715483
	L-6,84.09688679024191 L-40.49892619891064,84.09688679024191
	L-86.95223485028323,25.846280188216937 L-12,8.738921692681801
	L-12,-88.22110457430965 z
	M-12,14.738921692681801
	L-76.41167848238412,29.440466980802423 L-37.60947848606547,78.09688679024191
	L-12,78.09688679024191 z
" />
<!--
	outer "h"
-->
<path fill-rule="nonzero" fill="#0024FF" stroke="#777777" d="
	M0,-100
	L0,90.09688679024191 L18,90.09688679024191
	L18,22.1083825390227 L65.871122114485,33.0346537733879
	L20.365509773337035,90.09688679024191 L43.38837391175582,90.09688679024191
	L97.49279121818236,22.25209339563144 L18,4.108382539022699
	L18,-91.33165686146448 z
" />
<!--
	inner "h"
-->
<path fill-rule="nonzero" fill="#FFDB00" stroke="#777777" d="
	M6,-91.11055228715483
	L6,84.09688679024191
	L12,84.09688679024191
	L12,14.73892169268187	
	L76.41167848238412,29.440466980802423
	L32.82463815277105,84.09688679024191
	L40.498926198910624,84.09688679024191
	L86.95223485028323,25.846280188216937
	L12,8.738921692681
	L12,-88.22110457430966 z

" />
</svg>
