<svg version="1" xmlns="http://www.w3.org/2000/svg" width="933.333" height="933.333" viewBox="0 0 700.000000 700.000000"><path d="M333 6.1c-6.9 3.3-20.4 9.9-30.1 14.6l-17.6 8.5v166.5c0 91.5-.3 166.7-.7 167-.4.4-1.2.8-1.9.9-.7.1-8.4 1.8-17.2 3.8-8.8 2.1-25.9 6-38 8.7-12.1 2.8-24.7 5.6-28 6.4-3.3.8-16.1 3.7-28.5 6.5-12.4 2.8-29.5 6.7-38 8.6-8.5 2-16.4 3.7-17.4 4-1.1.2-6.7 1.5-12.5 2.9-9.2 2.1-60 13.8-65.6 15-1.1.2-2.9.6-4 .9-1.1.2-7.4 1.6-14 3.1s-12.3 3-12.7 3.4c-.4.3 1 2.7 3 5.1 2.1 2.5 15.2 18.9 29.2 36.5s25.7 32.2 26 32.5c.3.3 1.9 2.3 3.5 4.5s3.4 4.4 4 5c.6.5 2.4 2.8 4 5 1.7 2.2 5.7 7.3 9 11.3 3.3 4.1 6.9 8.6 8 10.1 2.3 3.2 9.7 12.4 10.6 13.1.3.3 1.8 2.3 3.5 4.5 1.6 2.2 3.5 4.6 4.2 5.3.7.8 2.5 3 4 5 1.5 2.1 3.2 4.2 3.7 4.8.6.6 18.3 22.8 39.4 49.3l38.4 48.1h217.6V551.2c0-63.6 0-117.1.1-118.8v-3.1l5.3 1.4c2.8.7 6.3 1.5 7.7 1.8 1.4.3 9.3 2.1 17.5 4 13.5 3.2 28.8 6.7 35.5 8.1 1.4.3 7.1 1.6 12.7 3 5.7 1.3 12.6 2.9 15.5 3.5 2.9.6 6.9 1.5 8.8 1.9 1.9.5 4.6 1.1 6 1.4 1.4.3 6.3 1.4 11 2.5s12.8 3 18 4.2c5.2 1.1 10.9 2.5 12.5 2.9 1.7.5 4.9 1.2 7.3 1.5 2.3.4 4.2.9 4.2 1.2 0 .3-6.9 9.1-15.2 19.7-8.4 10.5-15.8 19.8-16.5 20.6-.6.8-2.8 3.5-4.8 6s-4.2 5.2-4.8 6c-.7.8-17.2 21.5-36.7 46-19.5 24.5-36 45.2-36.7 46-.7.8-4.4 5.5-8.4 10.5-3.9 4.9-8.4 10.6-9.9 12.5-1.6 1.9-7.6 9.6-13.5 17s-11.2 14.1-11.7 14.8c-.8.9 7.6 1.2 41.4 1.2h42.5l32.1-40.3c17.7-22.1 33-41.3 34.1-42.7 1.1-1.4 11.5-14.4 23.1-29 11.6-14.6 21.9-27.4 22.8-28.5.9-1.1 3-3.8 4.7-6 1.6-2.2 3.5-4.6 4.2-5.3.7-.8 2.6-3 4.1-5 1.5-2.1 2.9-3.9 3.2-4.2 1.5-1.4 62.2-77.9 62.4-78.6.1-.9-3-1.7-30.9-8-8.8-2-16.7-3.8-17.5-3.9-4.6-1.1-15.9-3.7-18-4.1-1.4-.3-7.9-1.8-14.5-3.4-6.6-1.6-13.1-3.1-14.5-3.3-1.4-.3-5.5-1.2-9.1-2.1-3.7-.8-7.8-1.7-9-2-1.3-.2-11.4-2.5-22.4-5-19.1-4.4-23.4-5.4-24.5-5.6-.3-.1-2.1-.5-4-.9-9.9-2.4-26.8-6.3-29-6.7-1.4-.3-18-4.1-37-8.5s-36-8.2-37.9-8.5c-1.9-.3-4.5-1-5.8-1.5-1.3-.5-2.3-.5-2.3-.2 0 .4-.5.2-1.1-.4-.7-.7-1-51.7-1-167.5V29.3l-19.7-9.5C356.5 1 354.1 0 349.7.1c-3 0-7.8 1.7-16.7 6zm-47.7 505.6c-.1 45-.2 83.4-.2 85.3l-.1 3.6-27.8-.1h-27.8l-13.5-16.8c-7.4-9.3-20.3-25.5-28.7-36-8.4-10.6-15.8-19.9-16.5-20.7-.7-.8-10.9-13.7-22.7-28.5-11.8-14.9-22.3-27.9-23.3-28.9-.9-1.1-1.4-2.3-1-2.7.5-.4 12.1-3.3 25.8-6.4 13.8-3.1 25.7-5.8 26.5-6 .8-.2 6.7-1.5 13-2.9 6.3-1.5 13.3-3.1 15.5-3.6 2.2-.6 5-1.3 6.3-1.5 1.3-.2 3.1-.6 4-.9.9-.3 2.8-.7 4.2-1 1.4-.2 6.6-1.4 11.5-2.6 5-1.2 10.1-2.4 11.5-2.7 1.4-.2 10.8-2.4 21-4.8 10.2-2.3 19.4-4.3 20.5-4.4 2-.1 2 .5 1.8 81.6z"/></svg>