<svg version="1" xmlns="http://www.w3.org/2000/svg" width="933.333" height="933.333" viewBox="0 0 700.000000 700.000000"><path d="M348 30.5c0 .8-.4 1.5-1 1.5-1 0-11.5 4.9-40.9 19.1L291 58.4v303.2l-4.7 1.2c-2.7.6-12 2.7-20.8 4.7s-17.8 4-19.9 4.6c-2.2.6-4.9 1.3-6 1.5-1.2.2-3.4.7-5.1 1.1-1.6.4-3.2.7-3.5.8-.3.1-1.8.4-3.5.8-1.6.4-3.9.9-5 1.1-1.1.2-7.8 1.8-15 3.5-7.1 1.6-17 3.9-22 5-4.9 1.1-17.1 3.8-27 6.1-9.9 2.3-18.7 4.3-19.5 4.5-.8.2-13.6 3.1-28.5 6.4-14.8 3.4-28.8 6.6-31 7.1-2.2.6-5 1.3-6.3 1.5-1.2.3-3 .7-4 .9-4.6 1.1-25 5.8-27.2 6.3-1.4.3-3 .6-3.7.6-.7 0-.9.5-.6 1.1.5.9 9.9 12.8 17 21.6.7.8 14.3 17.9 30.3 38s30.4 38.1 31.9 40c3.1 3.9 11 13.7 15.6 19.6 4 5 51 63.9 54.6 68.4 1.5 1.9 6.9 8.7 11.9 15 5 6.3 9.7 12.3 10.5 13.2.8 1 2.7 1.8 4.2 1.9h193.1l2.2-.1V422.3l14.4 3.3c7.9 1.8 15.5 3.5 16.8 3.8 1.2.2 4.3.9 6.8 1.5 2.5.7 5.6 1.4 7 1.7 2.7.6 55.8 12.6 65.5 14.9 3.3.8 12.5 2.9 20.5 4.6 14.6 3.3 17.4 4.3 15.4 5.7-.6.4-1.5 1.4-2 2.3-.5.9-2.5 3.6-4.6 6-2 2.4-7.5 9.3-12.3 15.4-4.8 6-9.4 11.9-10.3 13-1 1.1-5.1 6.3-9.2 11.5s-7.7 9.7-8 10c-.3.3-5.7 7-12 15s-11.9 15-12.5 15.6c-.5.6-2 2.4-3.2 4-1.2 1.6-17.3 21.8-35.7 44.9-18.4 23-33.4 42.1-33.1 42.3.2.3 62.2.5 73.8.3 2.3-.1 5.9-4.1 26.8-30.4 13.2-16.6 24.8-31.1 25.7-32.2 1-1.1 5.1-6.3 9.2-11.5s8.2-10.4 9.2-11.5c.9-1.1 4.8-6.1 8.7-11 8.7-10.9 5.2-6.6 31.1-39 11.8-14.9 21.7-27.2 22-27.5.3-.3 2.1-2.5 4-5s4.1-5.2 4.7-6c.7-.8 7.2-8.9 14.4-18s14.5-18.2 16.3-20.4c4.1-5.1 4.7-6.3 3.3-6.3-1 0-32.8-7.2-52.2-11.8-7.9-1.8-32.7-7.5-35.1-7.9-1.1-.2-3.7-.9-5.9-1.4-2.2-.6-5.1-1.3-6.5-1.6-1.4-.2-6.5-1.4-11.5-2.5-16.7-3.9-45-10.3-47.5-10.7-1.4-.3-3.8-.9-5.5-1.4-1.6-.5-16.3-3.9-32.5-7.6-16.2-3.6-34-7.6-39.5-8.9-5.5-1.3-11.5-2.6-13.2-3l-3.3-.7V58.4l-12.7-6.2c-7.1-3.3-20-9.6-28.8-13.9-20.6-10-19.5-9.5-19.5-7.8zm-57 469.4v77.8h-51l-2.7-3.6c-1.5-2-3.5-4.5-4.4-5.6-1-1.1-11.6-14.4-23.6-29.5-12-15.1-31.7-39.8-43.7-54.8-12-15.1-21.5-27.6-21.2-27.9.5-.6 26.2-6.8 31.6-7.7 1.4-.2 6.1-1.3 10.5-2.4 4.4-1.1 9.4-2.3 11-2.6 2.3-.4 22.2-4.9 35.5-8.1 6.7-1.6 21-4.8 23-5.1 1.4-.3 3.2-.7 4-1 .8-.3 4.7-1.2 8.5-2 3.9-.9 7.9-1.7 9-2 2.3-.5 12.9-3.1 13.3-3.3.1-.1.2 34.9.2 77.8z"/></svg>